# xmcd
#
# Track frame offsets:
#	187
#	24617
#	49940
#	63250
#	74570
#	102997
#	136517
#	165190
#	189115
#	214237
#	244000
#	274530
#
# Disc length: 4013
#
# Revision: 1
# Processed by: cddbd v1.5.1PL0 Copyright (c) Steve Scherf et al.
# Submitted via: CDex 1.51
# Normalized: r0:TDELIM( - )
#
DISCID=9f0fab0c
DTITLE=Various Artist - The Spirit of Jazz
DYEAR=1991
DGENRE=Jazz
TTITLE0=Jungle Blues - Marcus Roberts
TTITLE1=Shout 'em Aunt Tillie - Marcus Roberts
TTITLE2=Man, That was a Dream - Carmen McRae
TTITLE3=The Best is Yet to Come - Carmen McRae
TTITLE4=Doin' It Right - Hilton Ruiz
TTITLE5=Mutt 'n Jeff - James Moody
TTITLE6=You Don't Know What Love Is - Roy Hargrove
TTITLE7=Little Bennie (Crazeology) - Roy Hargrove
TTITLE8=Hit and Run - Christopher Hollyday
TTITLE9=Cousin Mary - John Jicks, Celcil McBee and Elvin Jones
TTITLE10=Blues Shifting - Steve Coleman
TTITLE11=The Moochie - Steve Lacy with Mal Waldron
EXTD=YEAR: 1991
EXTT0=
EXTT1=
EXTT2=
EXTT3=
EXTT4=
EXTT5=
EXTT6=
EXTT7=
EXTT8=
EXTT9=
EXTT10=
EXTT11=
PLAYORDER=
